<!DOCTYPE svg PUBLIC "-//W3C//DTD SVG 1.1//EN" "http://www.w3.org/Graphics/SVG/1.1/DTD/svg11.dtd">
<!-- Uploaded to: SVG Repo, www.svgrepo.com, Transformed by: SVG Repo Mixer Tools -->
<svg fill="#000000" width="800px" height="800px" viewBox="0 0 24 24" id="credit-card-2" data-name="Flat Line" xmlns="http://www.w3.org/2000/svg" class="icon flat-line">
<g id="SVGRepo_bgCarrier" stroke-width="0"/>
<g id="SVGRepo_tracerCarrier" stroke-linecap="round" stroke-linejoin="round"/>
<g id="SVGRepo_iconCarrier">
<path id="secondary" d="M3,9H21a0,0,0,0,1,0,0v9a1,1,0,0,1-1,1H4a1,1,0,0,1-1-1V9A0,0,0,0,1,3,9Z" style="fill: #90e0ef; stroke-width: 2;"/>
<path id="primary" d="M17,15H13m8-6H3m18,9V6a1,1,0,0,0-1-1H4A1,1,0,0,0,3,6V18a1,1,0,0,0,1,1H20A1,1,0,0,0,21,18Z" style="fill: none; stroke: #1990a7; stroke-linecap: round; stroke-linejoin: round; stroke-width: 2;"/>
</g>
</svg>