<?xml version="1.0" ?>
<!DOCTYPE svg  PUBLIC '-//W3C//DTD SVG 1.1//EN'  'http://www.w3.org/Graphics/SVG/1.1/DTD/svg11.dtd'>
<!-- Uploaded to: SVG Repo, www.svgrepo.com, Generator: SVG Repo Mixer Tools -->
<svg fill="#000000" width="800px" height="800px" viewBox="0 0 32 32" style="fill-rule:evenodd;clip-rule:evenodd;stroke-linejoin:round;stroke-miterlimit:2;" version="1.1" xml:space="preserve" xmlns="http://www.w3.org/2000/svg" xmlns:serif="http://www.serif.com/" xmlns:xlink="http://www.w3.org/1999/xlink">
<g transform="matrix(1,0,0,1,-240,-240)">
<g transform="matrix(0.884615,0,0,1.05882,28.0385,-14.6471)">
<path d="M269,250.889C269,250.388 268.762,249.907 268.338,249.553C267.914,249.199 267.339,249 266.739,249C260.414,249 243,249 243,249L243,264.111C243,264.612 243.238,265.093 243.662,265.447C244.086,265.801 244.661,266 245.261,266C250.182,266 261.818,266 266.739,266C267.339,266 267.914,265.801 268.338,265.447C268.762,265.093 269,264.612 269,264.111C269,260.84 269,254.16 269,250.889Z" style="fill:rgb(144,224,239);"/>
</g>
<g transform="matrix(1,0,0,1,0,2)">
<path d="M243,247L243,245C243,243.895 243.895,243 245,243C248.65,243 256.35,243 260,243C261.105,243 262,243.895 262,245C262,246 262,247 262,247L243,247Z" style="fill:rgb(144,224,239);"/>
</g>
<g transform="matrix(0.346154,0,0,0.470588,175.885,136.824)">
<path d="M269,253.25C269,250.903 266.413,249 263.222,249C258.922,249 253.078,249 248.778,249C245.587,249 243,250.903 243,253.25C243,255.846 243,259.154 243,261.75C243,264.097 245.587,266 248.778,266C253.078,266 258.922,266 263.222,266C266.413,266 269,264.097 269,261.75C269,259.154 269,255.846 269,253.25Z" style="fill:rgb(144,224,239);"/>
</g>
<path d="M242,247C242,245.343 243.343,244 245,244L260,244C261.657,244 263,245.343 263,247L263,248L264,248C264.796,248 265.559,248.316 266.121,248.879C266.684,249.441 267,250.204 267,251L267,253C268.657,253 270,254.343 270,256L270,260C270,261.657 268.657,263 267,263L267,265C267,265.796 266.684,266.559 266.121,267.121C265.559,267.684 264.796,268 264,268C259.646,268 249.354,268 245,268C244.204,268 243.441,267.684 242.879,267.121C242.316,266.559 242,265.796 242,265L242,247ZM265,253L265,251C265,250.735 264.895,250.48 264.707,250.293C264.52,250.105 264.265,250 264,250C264,250 244,250 244,250L244,265C244,265.265 244.105,265.52 244.293,265.707C244.48,265.895 244.735,266 245,266L264,266C264.265,266 264.52,265.895 264.707,265.707C264.895,265.52 265,265.265 265,265L265,263L262,263C260.343,263 259,261.657 259,260L259,256C259,254.343 260.343,253 262,253L265,253ZM268,256L268,260C268,260.552 267.552,261 267,261C265.512,261 263.488,261 262,261C261.448,261 261,260.552 261,260C261,260 261,256 261,256C261,255.448 261.448,255 262,255C263.488,255 265.512,255 267,255C267.552,255 268,255.448 268,256ZM263,257C263.552,257 264,257.448 264,258C264,258.552 263.552,259 263,259C262.448,259 262,258.552 262,258C262,257.448 262.448,257 263,257ZM244,248L244,247C244,246.448 244.448,246 245,246C245,246 260,246 260,246C260.552,246 261,246.448 261,247C261,247 261,248 261,248L244,248Z" style="fill:rgb(25,144,167);"/>
</g>
</svg>